<svg xmlns="http://www.w3.org/2000/svg" xmlns:xlink="http://www.w3.org/1999/xlink" width="428" height="926" viewBox="0 0 428 926">
  <defs>
    <clipPath id="clip-iPhone_13_12_Pro_Max_5">
      <rect width="428" height="926"/>
    </clipPath>
  </defs>
  <g id="iPhone_13_12_Pro_Max_5" data-name="iPhone 13, 12 Pro Max – 5" clip-path="url(#clip-iPhone_13_12_Pro_Max_5)">
    <rect width="428" height="926" fill="#fff"/>
    <rect id="Rectangle_81" data-name="Rectangle 81" width="428" height="87" transform="translate(0 839)" fill="#e9e9e9"/>
    <text id="Home" transform="translate(68 27)" font-size="20" font-family="Roboto-Light, Roboto" font-weight="300"><tspan x="33.296" y="19">Home</tspan></text>
    <text id="Rockets" transform="translate(226 27)" font-size="20" font-family="Roboto-Light, Roboto" font-weight="300"><tspan x="24.658" y="19">Rockets</tspan></text>
    <text id="The_team" data-name="The team" transform="translate(68 57)" font-size="20" font-family="Roboto-Light, Roboto" font-weight="300"><tspan x="18.345" y="19">The team</tspan></text>
    <text id="Booking" transform="translate(226 57)" font-size="20" font-family="Roboto-Light, Roboto" font-weight="300"><tspan x="24.492" y="19">Booking</tspan></text>
    <text id="Contact" transform="translate(154 85)" font-size="20" font-family="Roboto-Light, Roboto" font-weight="300"><tspan x="25.479" y="19">Contact</tspan></text>
    <path id="Icon_awesome-facebook-square" data-name="Icon awesome-facebook-square" d="M28.125,2.25H3.375A3.375,3.375,0,0,0,0,5.625v24.75A3.375,3.375,0,0,0,3.375,33.75h9.65V23.041H8.6V18h4.43V14.158c0-4.37,2.6-6.784,6.586-6.784a26.836,26.836,0,0,1,3.9.34V12h-2.2a2.521,2.521,0,0,0-2.842,2.723V18h4.836l-.773,5.041H18.475V33.75h9.65A3.375,3.375,0,0,0,31.5,30.375V5.625A3.375,3.375,0,0,0,28.125,2.25Z" transform="translate(201.816 864.5)" fill="#1176ad"/>
    <path id="Icon_awesome-twitter-square" data-name="Icon awesome-twitter-square" d="M28.125,2.25H3.375A3.376,3.376,0,0,0,0,5.625v24.75A3.376,3.376,0,0,0,3.375,33.75h24.75A3.376,3.376,0,0,0,31.5,30.375V5.625A3.376,3.376,0,0,0,28.125,2.25ZM24.687,13.416c.014.2.014.4.014.6a13.031,13.031,0,0,1-13.12,13.12A13.06,13.06,0,0,1,4.5,25.066a9.715,9.715,0,0,0,1.111.056,9.246,9.246,0,0,0,5.723-1.969,4.618,4.618,0,0,1-4.31-3.2,4.97,4.97,0,0,0,2.081-.084,4.612,4.612,0,0,1-3.691-4.528v-.056A4.608,4.608,0,0,0,7.5,15.87,4.6,4.6,0,0,1,5.442,12.03,4.554,4.554,0,0,1,6.068,9.7a13.094,13.094,0,0,0,9.506,4.823,4.621,4.621,0,0,1,7.868-4.212A9.036,9.036,0,0,0,26.367,9.2a4.6,4.6,0,0,1-2.025,2.538A9.177,9.177,0,0,0,27,11.025,9.707,9.707,0,0,1,24.687,13.416Z" transform="translate(239.617 864.5)" fill="#1176ad"/>
    <path id="Icon_awesome-youtube-square" data-name="Icon awesome-youtube-square" d="M13.134,14.21l6.694,3.8-6.694,3.8ZM31.5,5.625v24.75a3.376,3.376,0,0,1-3.375,3.375H3.375A3.376,3.376,0,0,1,0,30.375V5.625A3.376,3.376,0,0,1,3.375,2.25h24.75A3.376,3.376,0,0,1,31.5,5.625Zm-2.953,12.4a33.786,33.786,0,0,0-.534-6.2,3.209,3.209,0,0,0-2.264-2.278C23.759,9,15.75,9,15.75,9s-8.009,0-10,.541A3.209,3.209,0,0,0,3.487,11.82a33.744,33.744,0,0,0-.534,6.2,33.786,33.786,0,0,0,.534,6.2,3.163,3.163,0,0,0,2.264,2.243c1.99.534,10,.534,10,.534s8.009,0,10-.541a3.163,3.163,0,0,0,2.264-2.243,33.682,33.682,0,0,0,.534-6.195Z" transform="translate(277.417 864.5)" fill="#1176ad"/>
    <path id="Icon_metro-instagram" data-name="Icon metro-instagram" d="M28.3,1.928H7.692A5.136,5.136,0,0,0,2.571,7.049V27.655a5.136,5.136,0,0,0,5.121,5.121H28.3a5.136,5.136,0,0,0,5.121-5.121V7.049A5.136,5.136,0,0,0,28.3,1.928Zm-15.852,13.5h11.1a5.874,5.874,0,1,1-11.1,0Zm17.117,0V26.992a1.934,1.934,0,0,1-1.928,1.928H8.355a1.934,1.934,0,0,1-1.928-1.928V15.424H9.443a8.767,8.767,0,1,0,17.1,0l3.016,0Zm0-6.75a.967.967,0,0,1-.964.964H26.671a.967.967,0,0,1-.964-.964V6.748a.967.967,0,0,1,.964-.964H28.6a.967.967,0,0,1,.964.964Z" transform="translate(312.581 865.147)" fill="#1176ad"/>
    <g id="Group_16" data-name="Group 16" transform="translate(-1555.292 142.864)">
      <g id="Rectangle_98" data-name="Rectangle 98" transform="translate(1581.888 76)" fill="#fff" stroke="#d9d9dc" stroke-width="1">
        <rect width="374.81" height="417.136" stroke="none"/>
        <rect x="0.5" y="0.5" width="373.81" height="416.136" fill="none"/>
      </g>
      <text id="Name:" transform="translate(1666.372 136.505)" fill="#787879" font-size="24" font-family="SegoeUI-Light, Segoe UI" font-weight="300"><tspan x="-66.047" y="0">Name:</tspan></text>
      <text id="Last_Name:" data-name="Last Name:" transform="translate(1714.837 210.443)" fill="#787879" font-size="24" font-family="SegoeUI-Light, Segoe UI" font-weight="300"><tspan x="-111.914" y="0">Last Name:</tspan></text>
      <text id="Package:" transform="translate(1693.918 284.381)" fill="#787879" font-size="24" font-family="SegoeUI-Light, Segoe UI" font-weight="300"><tspan x="-87.797" y="0">Package:</tspan></text>
      <text id="Date:" transform="translate(1661.382 393.441)" fill="#787879" font-size="24" font-family="SegoeUI-Light, Segoe UI" font-weight="300"><tspan x="-52.605" y="0">Date:</tspan></text>
      <g id="Rectangle_99" data-name="Rectangle 99" transform="translate(1602.837 149.322)" fill="#f4f4f4" stroke="#707070" stroke-width="1">
        <rect width="344.002" height="28.959" rx="14.48" stroke="none"/>
        <rect x="0.5" y="0.5" width="343.002" height="27.959" rx="13.98" fill="none"/>
      </g>
      <g id="Rectangle_100" data-name="Rectangle 100" transform="translate(1602.837 223.261)" fill="#f4f4f4" stroke="#707070" stroke-width="1">
        <rect width="344.002" height="28.959" rx="14.48" stroke="none"/>
        <rect x="0.5" y="0.5" width="343.002" height="27.959" rx="13.98" fill="none"/>
      </g>
      <g id="Rectangle_101" data-name="Rectangle 101" transform="translate(1602.837 297.199)" fill="#f4f4f4" stroke="#1176ad" stroke-width="4">
        <rect width="150.341" height="28.959" rx="14.48" stroke="none"/>
        <rect x="2" y="2" width="146.341" height="24.959" rx="12.48" fill="none"/>
      </g>
      <g id="Rectangle_102" data-name="Rectangle 102" transform="translate(1605.918 406.258)" fill="#f4f4f4" stroke="#707070" stroke-width="1">
        <rect width="344.002" height="28.959" rx="14.48" stroke="none"/>
        <rect x="0.5" y="0.5" width="343.002" height="27.959" rx="13.98" fill="none"/>
      </g>
      <g id="Rectangle_103" data-name="Rectangle 103" transform="translate(1792.8 297.199)" fill="#f4f4f4" stroke="#707070" stroke-width="1">
        <rect width="150.341" height="28.959" rx="14.48" stroke="none"/>
        <rect x="0.5" y="0.5" width="149.341" height="27.959" rx="13.98" fill="none"/>
      </g>
      <g id="Rectangle_104" data-name="Rectangle 104" transform="translate(1602.221 332.32)" fill="#f4f4f4" stroke="#707070" stroke-width="1">
        <rect width="150.341" height="28.959" rx="14.48" stroke="none"/>
        <rect x="0.5" y="0.5" width="149.341" height="27.959" rx="13.98" fill="none"/>
      </g>
      <g id="Rectangle_105" data-name="Rectangle 105" transform="translate(1792.184 332.32)" fill="#f4f4f4" stroke="#707070" stroke-width="1">
        <rect width="150.341" height="28.959" rx="14.48" stroke="none"/>
        <rect x="0.5" y="0.5" width="149.341" height="27.959" rx="13.98" fill="none"/>
      </g>
      <text id="Solo" transform="translate(1683.272 318.048)" fill="#787879" font-size="18" font-family="SegoeUI-Light, Segoe UI" font-weight="300"><tspan x="-16.418" y="0">Solo</tspan></text>
      <text id="Adventure" transform="translate(1866.305 320.512)" fill="#787879" font-size="18" font-family="SegoeUI-Light, Segoe UI" font-weight="300"><tspan x="-38.962" y="0">Adventure</tspan></text>
      <text id="Business" transform="translate(1683.569 353.168)" fill="#787879" font-size="18" font-family="SegoeUI-Light, Segoe UI" font-weight="300"><tspan x="-31.399" y="0">Business</tspan></text>
      <text id="Romantic" transform="translate(1867.234 355.633)" fill="#787879" font-size="18" font-family="SegoeUI-Light, Segoe UI" font-weight="300"><tspan x="-35.218" y="0">Romantic</tspan></text>
      <g id="Polygon_11" data-name="Polygon 11" transform="translate(1938.829 429.672) rotate(180)" fill="#1176ad">
        <path d="M 19.40398406982422 14.90383625030518 L 0.9290775656700134 14.90383625030518 L 10.16653060913086 0.9076896905899048 L 19.40398406982422 14.90383625030518 Z" stroke="none"/>
        <path d="M 10.16653060913086 1.815398216247559 L 1.858163833618164 14.40383625030518 L 18.47489738464355 14.40383625030518 L 10.16653060913086 1.815398216247559 M 10.16653060913086 -2.86102294921875e-06 L 20.33306121826172 15.40383625030518 L 0 15.40383625030518 L 10.16653060913086 -2.86102294921875e-06 Z" stroke="none" fill="#707070"/>
      </g>
    </g>
  </g>
</svg>
