<svg xmlns="http://www.w3.org/2000/svg" xmlns:xlink="http://www.w3.org/1999/xlink" width="428" height="926" viewBox="0 0 428 926">
  <defs>
    <clipPath id="clip-iPhone_13_12_Pro_Max_4">
      <rect width="428" height="926"/>
    </clipPath>
  </defs>
  <g id="iPhone_13_12_Pro_Max_4" data-name="iPhone 13, 12 Pro Max – 4" clip-path="url(#clip-iPhone_13_12_Pro_Max_4)">
    <rect width="428" height="926" fill="#fff"/>
    <rect id="Rectangle_82" data-name="Rectangle 82" width="428" height="87" transform="translate(0 839)" fill="#e9e9e9"/>
    <path id="Icon_awesome-facebook-square" data-name="Icon awesome-facebook-square" d="M28.125,2.25H3.375A3.375,3.375,0,0,0,0,5.625v24.75A3.375,3.375,0,0,0,3.375,33.75h9.65V23.041H8.6V18h4.43V14.158c0-4.37,2.6-6.784,6.586-6.784a26.836,26.836,0,0,1,3.9.34V12h-2.2a2.521,2.521,0,0,0-2.842,2.723V18h4.836l-.773,5.041H18.475V33.75h9.65A3.375,3.375,0,0,0,31.5,30.375V5.625A3.375,3.375,0,0,0,28.125,2.25Z" transform="translate(201.816 864.5)" fill="#1176ad"/>
    <path id="Icon_awesome-twitter-square" data-name="Icon awesome-twitter-square" d="M28.125,2.25H3.375A3.376,3.376,0,0,0,0,5.625v24.75A3.376,3.376,0,0,0,3.375,33.75h24.75A3.376,3.376,0,0,0,31.5,30.375V5.625A3.376,3.376,0,0,0,28.125,2.25ZM24.687,13.416c.014.2.014.4.014.6a13.031,13.031,0,0,1-13.12,13.12A13.06,13.06,0,0,1,4.5,25.066a9.715,9.715,0,0,0,1.111.056,9.246,9.246,0,0,0,5.723-1.969,4.618,4.618,0,0,1-4.31-3.2,4.97,4.97,0,0,0,2.081-.084,4.612,4.612,0,0,1-3.691-4.528v-.056A4.608,4.608,0,0,0,7.5,15.87,4.6,4.6,0,0,1,5.442,12.03,4.554,4.554,0,0,1,6.068,9.7a13.094,13.094,0,0,0,9.506,4.823,4.621,4.621,0,0,1,7.868-4.212A9.036,9.036,0,0,0,26.367,9.2a4.6,4.6,0,0,1-2.025,2.538A9.177,9.177,0,0,0,27,11.025,9.707,9.707,0,0,1,24.687,13.416Z" transform="translate(239.617 864.5)" fill="#1176ad"/>
    <path id="Icon_awesome-youtube-square" data-name="Icon awesome-youtube-square" d="M13.134,14.21l6.694,3.8-6.694,3.8ZM31.5,5.625v24.75a3.376,3.376,0,0,1-3.375,3.375H3.375A3.376,3.376,0,0,1,0,30.375V5.625A3.376,3.376,0,0,1,3.375,2.25h24.75A3.376,3.376,0,0,1,31.5,5.625Zm-2.953,12.4a33.786,33.786,0,0,0-.534-6.2,3.209,3.209,0,0,0-2.264-2.278C23.759,9,15.75,9,15.75,9s-8.009,0-10,.541A3.209,3.209,0,0,0,3.487,11.82a33.744,33.744,0,0,0-.534,6.2,33.786,33.786,0,0,0,.534,6.2,3.163,3.163,0,0,0,2.264,2.243c1.99.534,10,.534,10,.534s8.009,0,10-.541a3.163,3.163,0,0,0,2.264-2.243,33.682,33.682,0,0,0,.534-6.195Z" transform="translate(277.417 864.5)" fill="#1176ad"/>
    <path id="Icon_metro-instagram" data-name="Icon metro-instagram" d="M28.3,1.928H7.692A5.136,5.136,0,0,0,2.571,7.049V27.655a5.136,5.136,0,0,0,5.121,5.121H28.3a5.136,5.136,0,0,0,5.121-5.121V7.049A5.136,5.136,0,0,0,28.3,1.928Zm-15.852,13.5h11.1a5.874,5.874,0,1,1-11.1,0Zm17.117,0V26.992a1.934,1.934,0,0,1-1.928,1.928H8.355a1.934,1.934,0,0,1-1.928-1.928V15.424H9.443a8.767,8.767,0,1,0,17.1,0l3.016,0Zm0-6.75a.967.967,0,0,1-.964.964H26.671a.967.967,0,0,1-.964-.964V6.748a.967.967,0,0,1,.964-.964H28.6a.967.967,0,0,1,.964.964Z" transform="translate(312.581 865.147)" fill="#1176ad"/>
    <text id="Home" transform="translate(68 27)" font-size="20" font-family="Roboto-Light, Roboto" font-weight="300"><tspan x="33.296" y="19">Home</tspan></text>
    <text id="Rockets" transform="translate(226 27)" font-size="20" font-family="Roboto-Light, Roboto" font-weight="300"><tspan x="24.658" y="19">Rockets</tspan></text>
    <text id="The_team" data-name="The team" transform="translate(68 57)" font-size="20" font-family="Roboto-Light, Roboto" font-weight="300"><tspan x="18.345" y="19">The team</tspan></text>
    <text id="Booking" transform="translate(226 57)" font-size="20" font-family="Roboto-Light, Roboto" font-weight="300"><tspan x="24.492" y="19">Booking</tspan></text>
    <text id="Contact" transform="translate(154 85)" font-size="20" font-family="Roboto-Light, Roboto" font-weight="300"><tspan x="25.479" y="19">Contact</tspan></text>
    <g id="Rectangle_89" data-name="Rectangle 89" transform="translate(34 144)" fill="#fff" stroke="#707070" stroke-width="1">
      <rect width="180" height="51" stroke="none"/>
      <rect x="0.5" y="0.5" width="179" height="50" fill="none"/>
    </g>
    <g id="Polygon_9" data-name="Polygon 9" transform="translate(202 182) rotate(180)" fill="#707070">
      <path d="M 24.15918922424316 22.5 L 0.8408100008964539 22.5 L 12.5 1.047090411186218 L 24.15918922424316 22.5 Z" stroke="none"/>
      <path d="M 12.5 2.094171524047852 L 1.681613922119141 22 L 23.31838607788086 22 L 12.5 2.094171524047852 M 12.5 0 L 25 23 L 0 23 L 12.5 0 Z" stroke="none" fill="#707070"/>
    </g>
    <text id="From" transform="translate(88 181)" fill="#707070" font-size="29" font-family="SegoeUI, Segoe UI"><tspan x="-33.106" y="0">From</tspan></text>
    <g id="Rectangle_90" data-name="Rectangle 90" transform="translate(222 144)" fill="#fff" stroke="#707070" stroke-width="1">
      <rect width="180" height="51" stroke="none"/>
      <rect x="0.5" y="0.5" width="179" height="50" fill="none"/>
    </g>
    <text id="To" transform="translate(277 181)" fill="#707070" font-size="29" font-family="SegoeUI, Segoe UI"><tspan x="-14.677" y="0">To</tspan></text>
    <g id="Polygon_10" data-name="Polygon 10" transform="translate(390 182) rotate(180)" fill="#707070">
      <path d="M 24.15918922424316 22.5 L 0.8408100008964539 22.5 L 12.5 1.047090411186218 L 24.15918922424316 22.5 Z" stroke="none"/>
      <path d="M 12.5 2.094171524047852 L 1.681613922119141 22 L 23.31838607788086 22 L 12.5 2.094171524047852 M 12.5 0 L 25 23 L 0 23 L 12.5 0 Z" stroke="none" fill="#707070"/>
    </g>
    <g id="Rectangle_91" data-name="Rectangle 91" transform="translate(34 211)" fill="#fff" stroke="#707070" stroke-width="1">
      <rect width="180" height="51" stroke="none"/>
      <rect x="0.5" y="0.5" width="179" height="50" fill="none"/>
    </g>
    <text id="Date" transform="translate(88 248)" fill="#707070" font-size="29" font-family="SegoeUI, Segoe UI"><tspan x="-30.041" y="0">Date</tspan></text>
    <g id="Rectangle_92" data-name="Rectangle 92" transform="translate(175 223)" fill="#707070" stroke="#707070" stroke-width="1">
      <rect width="30" height="31" stroke="none"/>
      <rect x="0.5" y="0.5" width="29" height="30" fill="none"/>
    </g>
    <g id="Rectangle_93" data-name="Rectangle 93" transform="translate(223 211)" fill="#707070" stroke="#707070" stroke-width="1">
      <rect width="179" height="51" stroke="none"/>
      <rect x="0.5" y="0.5" width="178" height="50" fill="none"/>
    </g>
    <text id="Submit" transform="translate(303 248)" fill="#fff" font-size="29" font-family="SegoeUI, Segoe UI"><tspan x="-45.348" y="0">Submit</tspan></text>
    <g id="Group_15" data-name="Group 15" transform="translate(-1352.466 120)">
      <text id="Dalas" transform="translate(1454 246)" fill="#707070" font-size="15" font-family="SegoeUI, Segoe UI"><tspan x="-35.779" y="0">Dalas</tspan></text>
      <line id="Line_11" data-name="Line 11" y2="372.628" transform="translate(1469 230)" fill="none" stroke="#707070" stroke-width="1"/>
      <line id="Line_12" data-name="Line 12" x2="158.519" transform="translate(1541.947 240.806)" fill="none" stroke="#707070" stroke-width="1"/>
      <text id="Dalas-2" data-name="Dalas" transform="translate(1482 370.523)" fill="#707070" font-size="15" font-family="SegoeUI, Segoe UI"><tspan x="0" y="0">Dalas</tspan></text>
      <text id="Dalas-3" data-name="Dalas" transform="translate(1454 592.628)" fill="#707070" font-size="15" font-family="SegoeUI, Segoe UI"><tspan x="-35.779" y="0">Dalas</tspan></text>
      <text id="London" transform="translate(1481 246)" fill="#707070" font-size="15" font-family="SegoeUI, Segoe UI"><tspan x="0" y="0">London</tspan></text>
      <text id="NY" transform="translate(1455 370.523)" fill="#707070" font-size="15" font-family="SegoeUI, Segoe UI"><tspan x="-19.512" y="0">NY</tspan></text>
      <text id="Buenos_Aires" data-name="Buenos Aires" transform="translate(1450 475.803)" fill="#707070" font-size="15" font-family="SegoeUI, Segoe UI"><tspan x="-85.415" y="0">Buenos Aires</tspan></text>
      <text id="Dalas-4" data-name="Dalas" transform="translate(1482 475.803)" fill="#707070" font-size="15" font-family="SegoeUI, Segoe UI"><tspan x="0" y="0">Dalas</tspan></text>
      <text id="NY-2" data-name="NY" transform="translate(1481 592.628)" fill="#707070" font-size="15" font-family="SegoeUI, Segoe UI"><tspan x="0" y="0">NY</tspan></text>
      <text id="_2022_05_11" data-name="2022/05/11" transform="translate(1619 443.634)" fill="#707070" font-size="15" font-family="SegoeUI, Segoe UI"><tspan x="-38.188" y="0">2022/05/11</tspan></text>
      <text id="_2022_05_11-2" data-name="2022/05/11" transform="translate(1621 341.279)" fill="#707070" font-size="15" font-family="SegoeUI, Segoe UI"><tspan x="-38.188" y="0">2022/05/11</tspan></text>
      <text id="_2022_05_11-3" data-name="2022/05/11" transform="translate(1621 581.628)" fill="#707070" font-size="15" font-family="SegoeUI, Segoe UI"><tspan x="-38.188" y="0">2022/05/11</tspan></text>
      <text id="_2022_05_11-4" data-name="2022/05/11" transform="translate(1619 236)" fill="#707070" font-size="15" font-family="SegoeUI, Segoe UI"><tspan x="-38.188" y="0">2022/05/11</tspan></text>
      <line id="Line_13" data-name="Line 13" x2="158.519" transform="translate(1541.947 370.055)" fill="none" stroke="#707070" stroke-width="1"/>
      <line id="Line_14" data-name="Line 14" x2="158.519" transform="translate(1541.947 464.827)" fill="none" stroke="#707070" stroke-width="1"/>
      <line id="Line_15" data-name="Line 15" x2="158.519" transform="translate(1541.947 586.434)" fill="none" stroke="#707070" stroke-width="1"/>
    </g>
    <g id="Rectangle_94" data-name="Rectangle 94" transform="translate(189 366)" fill="#1176ad" stroke="#707070" stroke-width="1">
      <rect width="159" height="29" rx="14.5" stroke="none"/>
      <rect x="0.5" y="0.5" width="158" height="28" rx="14" fill="none"/>
    </g>
    <g id="Rectangle_95" data-name="Rectangle 95" transform="translate(189 495)" fill="#1176ad" stroke="#707070" stroke-width="1">
      <rect width="159" height="29" rx="14.5" stroke="none"/>
      <rect x="0.5" y="0.5" width="158" height="28" rx="14" fill="none"/>
    </g>
    <g id="Rectangle_96" data-name="Rectangle 96" transform="translate(189 591)" fill="#1176ad" stroke="#707070" stroke-width="1">
      <rect width="159" height="29" rx="14.5" stroke="none"/>
      <rect x="0.5" y="0.5" width="158" height="28" rx="14" fill="none"/>
    </g>
    <g id="Rectangle_97" data-name="Rectangle 97" transform="translate(189 712)" fill="#1176ad" stroke="#707070" stroke-width="1">
      <rect width="159" height="29" rx="14.5" stroke="none"/>
      <rect x="0.5" y="0.5" width="158" height="28" rx="14" fill="none"/>
    </g>
  </g>
</svg>
