<svg xmlns="http://www.w3.org/2000/svg" width="902.42" height="826.207" viewBox="0 0 902.42 826.207">
  <g id="Group_8" data-name="Group 8" transform="translate(-150 -153.793)">
    <path id="Path_37" data-name="Path 37" d="M726.95,696.708l8.672,19.444c-7.049-1.122-13.6,4.9-13.751,12.629s6.14,15.774,13.189,16.873c-1.347,6-7.161,8.649-12.207,11.075s-10.485,6.45-10.11,12.845c.3,5.135,4.548,9.669,9.058,11.492s9.241,1.543,13.809,1.237c-6.921,7.24-7.6,20.848-1.517,30.611s18.217,14.569,27.305,10.811c-6.422,7.989-5.027,22.618,2.943,30.862,8.034,8.311,19.678,9.115,29.857,8.24a132.238,132.238,0,0,0,71.007-28.14c7.782-6.183,15.05-13.456,19.49-22.941s5.747-21.5,1.612-32.291c1.115,13.522,14.65,24.2,26.826,24.8s22.807-6.26,31.841-14.081c12.014-10.4,23.137-24.979,21.488-42.967-.816-8.9-4.706-17.469-8.521-25.765l-7.4-16.083c-2.986-6.493-6.039-13.1-10.533-18.544s-10.731-9.667-16.973-9.626c1.427-6.52,2.861-13.283,1.665-20.211s-5.776-14.1-12-15.723c-7.927-2.065-14.645,5.25-22.616,4.561-7.671-.664-14.01-8.362-21.459-11.412a17.178,17.178,0,0,0-18.537,3.206c-4.722,4.61-6.69,12.4-5,19.767,1.484,6.455,5.435,12.149,7.832,18.375s2.77,14.231-1.835,17.631c-5.557,4.1-14.014-1.48-18.356-8.235s-6.834-14.933-12.324-20.614c-6.479-6.7-16.622-8.276-23.293-3.608s-9.222,15.119-5.859,24c2.75,7.264,9.049,14.614,6.864,21.454-2.309,7.23-12.413,6.314-18.507,1.2s-10.141-12.806-16.161-18.03c-6.114-5.306-14.1-7.63-21.107-6.146a21.731,21.731,0,0,0-15.573,13.915" transform="translate(1.21 116.896)" fill="#e6e6e6"/>
    <path id="Path_38" data-name="Path 38" d="M867.347,642.066l-17.993,8.36a13.813,13.813,0,0,1-8.734,1.177c-2.612-.618-4.377-2.215-4.841-4.383l-4.187-19.554c-.791-3.689,2.265-8.053,7.264-10.376l9.937-4.617c5-2.323,10.3-1.843,12.614,1.14l12.244,15.81c1.358,1.753,1.44,4.132.228,6.527A13.812,13.812,0,0,1,867.347,642.066Z" transform="translate(1.21 116.896)" fill="#3f3d56"/>
    <path id="Path_39" data-name="Path 39" d="M309.43,280.659a354,354,0,0,1,77.5-124.057c29.006-30.112,74.15-28.86,74.15-28.86l.258-.32a87.58,87.58,0,0,1,92.553-28.912c4.3,1.235,7.615,1.783,9.189,1.232,28.707-10.047,27.358-32.724,52.126-50.993C658.576,16.761,802.42,53.4,822.7,112.262c16.439,47.7,89.82,70.827,117.236,107.317q6.431,8.559,12.618,17.316,2.9,4.068,5.737,8.2a730.422,730.422,0,0,1,52.147,88.155,514.142,514.142,0,0,1,26.1,61.684c28.591,83.582,18.814,145.855-60.021,130.47q-14-2.739-27.324-4.9-19.3-3.149-37.246-5.176-24.172-2.749-45.994-3.6-7.337-.3-14.405-.4c-69.67-.966-121.349,12.147-160.719,32.5q-10.011,5.163-18.973,10.923a236.058,236.058,0,0,0-26.08,19.319,254.9,254.9,0,0,0-31.422,32.2l-.522.639c-46.048,56.326-61.2,118.682-93.234,129.661C383.674,783.51,297.074,613.35,288.193,446.9q-.673-12.582-.743-25.091-.042-5.592.055-11.154c.141-9.673.567-19.285,1.281-28.78q.4-5.445.928-10.833c.388-3.873.81-7.724,1.3-11.55C294.495,331.442,300.589,304.758,309.43,280.659Z" transform="translate(1.21 116.896)" fill="#1176ad"/>
    <path id="Path_40" data-name="Path 40" d="M733.834,372.24c-10.935,5.091-11.115,27.895-7.686,35.284l6.214,13.374,39.609-18.4-6.214-13.374C762.321,381.735,744.777,367.166,733.834,372.24Z" transform="translate(1.21 116.896)" fill="#3f3d56"/>
    <path id="Path_41" data-name="Path 41" d="M627.393,564.256a4.331,4.331,0,0,1-1.827-8.26L830.12,460.958a4.33,4.33,0,1,1,3.649,7.854h0L629.215,563.85A4.307,4.307,0,0,1,627.393,564.256Z" transform="translate(1.21 116.896)" fill="#3f3d56"/>
    <rect id="Rectangle_10" data-name="Rectangle 10" width="64.474" height="217.68" transform="translate(730.144 555.085) rotate(-24.92)" fill="#e6e6e6"/>
    <path id="Path_42" data-name="Path 42" d="M567.905,162.514c-10.935,5.091-11.115,27.9-7.686,35.284l6.214,13.374,39.609-18.4L599.827,179.4C596.392,172.009,578.848,157.44,567.905,162.514Z" transform="translate(1.21 116.896)" fill="#3f3d56"/>
    <path id="Path_43" data-name="Path 43" d="M812.919,664.761l-17.993,8.36a13.813,13.813,0,0,1-8.734,1.177c-2.612-.618-4.377-2.215-4.841-4.383l-4.187-19.554c-.79-3.689,2.265-8.053,7.264-10.376l9.937-4.617c5-2.323,10.3-1.843,12.614,1.14l12.245,15.811c1.358,1.753,1.44,4.132.228,6.527A13.812,13.812,0,0,1,812.919,664.761Z" transform="translate(1.21 116.896)" fill="#3f3d56"/>
    <path id="Path_44" data-name="Path 44" d="M757.6,692.207l-17.993,8.359a13.812,13.812,0,0,1-8.734,1.177c-2.612-.618-4.377-2.215-4.841-4.383l-4.187-19.554c-.791-3.689,2.265-8.053,7.264-10.376l9.937-4.617c5-2.323,10.3-1.843,12.614,1.14l12.244,15.81c1.358,1.753,1.44,4.132.228,6.527a13.812,13.812,0,0,1-6.532,5.916Z" transform="translate(1.21 116.896)" fill="#3f3d56"/>
    <rect id="Rectangle_11" data-name="Rectangle 11" width="64.474" height="440.016" transform="translate(579.816 378.939) rotate(-24.92)" fill="#e6e6e6"/>
    <path id="Path_45" data-name="Path 45" d="M548.951,403.691l-6.561-14.437,3.777-1.742,6.541,14.391,94.715,210.006-3.773,1.753" transform="translate(150.001 153.793)" fill="#3f3d56"/>
    <path id="Path_46" data-name="Path 46" d="M622.951,391.691l-6.561-14.437,3.777-1.742,6.541,14.391,94.715,210.006-3.773,1.753" transform="translate(150.001 153.793)" fill="#3f3d56"/>
    <path id="Path_47" data-name="Path 47" d="M664.671,266.814l-79.226,36.809c-5.044-7.847-20.249-48.06-16.835-59.991l-2.563-11.378,54.7-25.416,7.322,9.007C638.942,219.18,660.1,256.951,664.671,266.814Z" transform="translate(1.21 116.896)" fill="#e6e6e6"/>
    <path id="Path_48" data-name="Path 48" d="M623.037,207.325l-56.451,26.228c-2.084.968-4.3.612-4.956-.795a1.952,1.952,0,0,1-.172-.643l-2.922-31.168c-.125-1.335,1.017-2.847,2.761-3.658L598.734,179.9c1.744-.81,3.637-.708,4.576.249l21.936,22.334c1.122,1.142.513,3.1-1.361,4.367a6.078,6.078,0,0,1-.848.48Z" transform="translate(1.21 116.896)" fill="#e6e6e6"/>
    <path id="Path_49" data-name="Path 49" d="M667.313,451.514a7.626,7.626,0,0,1-1.814-.214,5.6,5.6,0,0,1-3.9-3.025L627.09,373.992c-1.428-3.075.489-7.008,4.274-8.767l50.536-23.48c3.786-1.76,8.027-.687,9.457,2.387l34.513,74.283a5.6,5.6,0,0,1-.2,4.929,8.506,8.506,0,0,1-4.074,3.838l-50.536,23.479A8.92,8.92,0,0,1,667.313,451.514Z" transform="translate(1.21 116.896)" fill="#3f3d56"/>
    <rect id="Rectangle_12" data-name="Rectangle 12" width="64.474" height="217.68" transform="translate(616.968 606.82) rotate(-24.92)" fill="#e6e6e6"/>
    <path id="Path_50" data-name="Path 50" d="M602.189,210.581l-17.147,7.967c-3.309,1.537-7.773-1.024-9.95-5.71s-1.256-9.749,2.053-11.286l17.147-7.967c3.309-1.537,7.773,1.024,9.95,5.71S605.5,209.044,602.189,210.581Z" transform="translate(1.21 116.896)" fill="#3f3d56"/>
    <path id="Path_51" data-name="Path 51" d="M621.8,423.444c-10.935,5.091-11.115,27.895-7.686,35.284l6.214,13.374,39.609-18.4-6.214-13.375C650.286,432.939,632.742,418.37,621.8,423.444Z" transform="translate(1.21 116.896)" fill="#3f3d56"/>
    <path id="Path_52" data-name="Path 52" d="M440.152,377.925c-3.862,2.573-7.815-3.551-3.878-6.01C440.135,369.342,444.088,375.466,440.152,377.925Z" transform="translate(1.21 116.896)" fill="#e6e6e6"/>
    <path id="Path_53" data-name="Path 53" d="M842.152,289.925c-3.862,2.573-7.815-3.551-3.878-6.01C842.135,281.342,846.088,287.466,842.152,289.925Z" transform="translate(1.21 116.896)" fill="#e6e6e6"/>
    <path id="Path_54" data-name="Path 54" d="M568.152,359.925c-3.862,2.573-7.815-3.551-3.878-6.01C568.135,351.342,572.088,357.466,568.152,359.925Z" transform="translate(1.21 116.896)" fill="#e6e6e6"/>
    <path id="Path_55" data-name="Path 55" d="M440.152,599.925c-3.862,2.573-7.815-3.551-3.878-6.01C440.135,591.342,444.088,597.466,440.152,599.925Z" transform="translate(1.21 116.896)" fill="#e6e6e6"/>
    <path id="Path_56" data-name="Path 56" d="M637.152,98.925c-3.862,2.573-7.815-3.551-3.878-6.01C637.135,90.342,641.088,96.466,637.152,98.925Z" transform="translate(1.21 116.896)" fill="#e6e6e6"/>
    <path id="Path_57" data-name="Path 57" d="M447.152,216.925c-3.862,2.573-7.815-3.551-3.878-6.01C447.135,208.342,451.088,214.466,447.152,216.925Z" transform="translate(1.21 116.896)" fill="#e6e6e6"/>
    <path id="Path_58" data-name="Path 58" d="M571.639,146.2l-2.457-.539.538-2.458-1.638-.359-.539,2.458-2.457-.538-.359,1.638,2.457.539-.538,2.457,1.638.359.539-2.458,2.457.539Z" transform="translate(150.001 153.793)" fill="#e6e6e6"/>
    <path id="Path_59" data-name="Path 59" d="M171.542,350.978l-2.457-.539.538-2.457-1.638-.359-.539,2.457-2.458-.538-.359,1.638,2.458.539-.538,2.458,1.638.358.539-2.457,2.457.538Z" transform="translate(150.001 153.793)" fill="#e6e6e6"/>
    <path id="Path_60" data-name="Path 60" d="M824.22,492.333a8.51,8.51,0,0,1-11.29-4.127L802.817,466.44a8.5,8.5,0,1,1,15.417-7.163l10.112,21.766A8.51,8.51,0,0,1,824.22,492.333Z" transform="translate(1.21 116.896)" fill="#3f3d56"/>
    <path id="Path_61" data-name="Path 61" d="M652.22,572.333a8.51,8.51,0,0,1-11.29-4.127L630.817,546.44a8.5,8.5,0,1,1,15.417-7.163l10.112,21.766A8.51,8.51,0,0,1,652.22,572.333Z" transform="translate(1.21 116.896)" fill="#3f3d56"/>
    <path id="Path_62" data-name="Path 62" d="M808.642,444.778l-67.806,31.5c-4.317-6.716-17.331-41.133-14.409-51.344l1.434-11.423,40.486-19.863,8.971,7.505C789.959,396.883,808.539,428.2,808.642,444.778Z" transform="translate(1.21 116.896)" fill="#e6e6e6"/>
    <path id="Path_63" data-name="Path 63" d="M777.162,442.594l-17.147,7.967c-3.309,1.537-8.344-2.253-11.222-8.447s-2.528-12.487.781-14.024l17.147-7.967c3.309-1.537,8.344,2.253,11.222,8.447S780.471,441.056,777.162,442.594Z" transform="translate(1.21 116.896)" fill="#3f3d56"/>
    <path id="Path_64" data-name="Path 64" d="M482.951,446.691l-6.561-14.437,3.777-1.742,6.541,14.391,94.715,210.006-3.773,1.753" transform="translate(150.001 153.793)" fill="#3f3d56"/>
    <path id="Path_65" data-name="Path 65" d="M696.607,495.981l-67.806,31.5c-10-5.165-25.291-38.961-14.409-51.344l1.434-11.423,40.486-19.863,8.971,7.505C674.587,455.214,692.7,487.541,696.607,495.981Z" transform="translate(1.21 116.896)" fill="#e6e6e6"/>
    <path id="Path_66" data-name="Path 66" d="M663.732,490.793l-17.147,7.967c-3.309,1.537-8.03-1.579-10.524-6.945s-1.83-10.985,1.479-12.522l17.147-7.967c3.309-1.537,8.03,1.579,10.524,6.945S667.041,489.256,663.732,490.793Z" transform="translate(1.21 116.896)" fill="#3f3d56"/>
    <circle id="Ellipse_24" data-name="Ellipse 24" cx="103" cy="103" r="103" transform="translate(218.292 255.638)" fill="#fff" stroke="#707070" stroke-width="2"/>
    <path id="Path_67" data-name="Path 67" d="M742.4,349.021l62.593-182.809-68.731,180.62a3.442,3.442,0,1,0,6.138,2.188Z" transform="translate(1.21 116.896)" fill="#f0f0f0" opacity="0.3"/>
    <path id="Path_68" data-name="Path 68" d="M901.95,240.055q-18.38,6.108-40.751,12c-77.145,20.311-180.55,36.154-291.166,44.613s-215.227,8.519-294.564.174c-38.647-4.066-69.215-9.913-90.854-17.381-22.909-7.905-34.947-17.432-35.779-28.314-1.621-21.2,40.213-39.859,75.592-51.778l.958,2.843c-48.585,16.368-74.708,33.666-73.557,48.706,1.464,19.156,46.644,34.806,123.955,42.94,79.162,8.327,183.581,8.263,294.021-.181s213.655-24.257,290.63-44.523c75.174-19.791,117.45-42.129,115.986-61.286-1.216-15.9-32.567-29.51-88.278-38.312l.468-2.963c40.48,6.4,89.093,18.708,90.8,41.047.832,10.882-9.618,22.127-31.059,33.424C936.131,227.5,920.6,233.856,901.95,240.055Z" transform="translate(1.21 116.896)" fill="#3f3d56"/>
    <circle id="Ellipse_25" data-name="Ellipse 25" cx="10.702" cy="10.702" r="10.702" transform="translate(922.724 518.226)" fill="#fff" stroke="#707070" stroke-width="2"/>
    <circle id="Ellipse_26" data-name="Ellipse 26" cx="10.702" cy="10.702" r="10.702" transform="translate(990.724 808.227)" fill="#f2f2f2"/>
    <circle id="Ellipse_27" data-name="Ellipse 27" cx="20.866" cy="20.866" r="20.866" transform="translate(615.56 853.063)" fill="#f2f2f2"/>
    <circle id="Ellipse_28" data-name="Ellipse 28" cx="10.702" cy="10.702" r="10.702" transform="translate(466.724 597.226)" fill="#3f3d56"/>
    <path id="Path_69" data-name="Path 69" d="M687.226,478.768,733.4,490.721l28.321,55.628-47.88,1.878Z" transform="translate(150.001 153.793)" fill="#e6e6e6"/>
    <path id="Path_70" data-name="Path 70" d="M580.645,398.574,606.059,424l64.547,139.555-11.884,10.267Z" transform="translate(150.001 153.793)" fill="#ccc"/>
    <path id="Path_71" data-name="Path 71" d="M525.386,421.624l1.994,35.9L588.3,598.694l15.576-2.006Z" transform="translate(150.001 153.793)" fill="#ccc"/>
    <path id="Path_72" data-name="Path 72" d="M523.723,566.637l-24.869,40.7,18.333,59.669L552.9,635.061Z" transform="translate(150.001 153.793)" fill="#e6e6e6"/>
    <path id="Path_73" data-name="Path 73" d="M892.2,628.544q-19.368,0-42.456-1.464C770.125,622.024,667,604.447,559.363,577.588s-206.93-59.794-279.585-92.734c-35.393-16.047-62.556-31.236-80.735-45.147-19.247-14.727-27.666-27.564-25.024-38.153,5.148-20.629,50.731-25.142,88.064-25.3l.013,3c-51.268.21-81.514,8.387-85.165,23.022-4.652,18.64,33.287,47.741,104.087,79.841,72.5,32.868,171.6,65.739,279.073,92.557s210.4,44.363,289.84,49.408c77.579,4.928,124.743-2.937,129.4-21.578,3.862-15.477-21.6-38.275-71.69-64.2l1.379-2.664c36.4,18.836,78.646,45.852,73.222,67.589-2.644,10.589-16.106,17.964-40.016,21.922C928.591,627.413,911.85,628.544,892.2,628.544Z" transform="translate(1.21 116.896)" fill="#3f3d56"/>
  </g>
</svg>
